<?xml version="1.0" standalone="no"?>
<!DOCTYPE svg PUBLIC "-//W3C//DTD SVG 20010904//EN"
 "http://www.w3.org/TR/2001/REC-SVG-20010904/DTD/svg10.dtd">
<svg version="1.0" xmlns="http://www.w3.org/2000/svg"
 width="2475.000000pt" height="2475.000000pt" viewBox="0 0 2475.000000 2475.000000"
 preserveAspectRatio="xMidYMid meet">
<metadata>
Created by potrace 1.14, written by Peter Selinger 2001-2017
</metadata>
<g transform="translate(0.000000,2475.000000) scale(0.100000,-0.100000)"
fill="#000000" stroke="none">
<path d="M5605 20948 c-22 -13 -50 -41 -62 -63 l-23 -40 0 -7913 c0 -7257 1
-7917 16 -7948 9 -19 32 -47 50 -64 l35 -30 482 0 c362 0 486 -3 495 -12 9 -9
12 -133 12 -494 0 -318 4 -492 11 -511 15 -41 47 -71 104 -100 l50 -26 6145 6
c5082 4 6153 7 6193 18 34 9 60 26 83 51 l34 38 0 6550 c0 5486 -2 6556 -14
6583 -7 18 -49 64 -92 104 -43 40 -87 80 -96 90 -10 10 -75 76 -145 147 -71
71 -139 140 -153 155 -49 52 -361 368 -457 463 -54 54 -115 115 -137 137 -44
44 -244 244 -287 287 -16 16 -85 85 -153 154 -69 69 -139 139 -155 155 -17 17
-72 74 -123 129 -51 54 -110 111 -130 126 -20 14 -63 60 -95 101 -33 41 -88
99 -123 129 -34 30 -95 88 -134 128 -39 40 -104 106 -144 145 -169 166 -210
208 -269 274 -35 39 -84 81 -114 98 l-52 28 -846 4 -846 4 -55 61 c-30 34 -72
86 -93 117 -21 31 -69 88 -105 127 -37 39 -94 104 -127 143 -33 40 -80 96
-105 125 -25 30 -72 88 -105 131 -33 43 -80 101 -105 130 -25 29 -65 78 -90
110 -81 103 -114 138 -150 153 -31 14 -461 16 -4060 19 l-4025 4 -40 -23z
m8102 -430 c71 -84 223 -265 338 -403 114 -137 215 -258 224 -268 15 -18 -101
-19 -3767 -16 -3765 3 -3782 3 -3809 -17 -15 -11 -36 -33 -47 -48 l-21 -27 -3
-7265 -2 -7264 -395 0 -395 0 0 7730 0 7730 3874 0 3875 0 128 -152z m2443
-2310 c0 -851 4 -1356 10 -1378 5 -20 26 -51 45 -70 l36 -35 1345 -3 1344 -2
-2 -6318 -3 -6317 -6002 -3 -6003 -2 0 7730 0 7730 2038 3 c1120 1 3197 3
4615 5 l2577 2 0 -1342z m1664 -268 l908 -925 -1133 -3 c-623 -1 -1134 -1
-1135 1 -2 2 -5 524 -6 1160 l-3 1157 231 -232 c127 -128 639 -649 1138 -1158z"/>
<path d="M8680 14122 c-19 -9 -45 -32 -57 -51 l-23 -34 0 -806 c0 -767 1 -808
19 -841 10 -19 34 -44 52 -55 33 -19 53 -20 629 -21 327 -1 695 2 817 5 l223
6 37 38 38 37 3 813 c3 921 8 860 -78 905 l-44 22 -791 0 c-732 0 -793 -1
-825 -18z m1450 -892 l0 -620 -620 0 -620 0 0 620 0 619 620 1 620 0 0 -620z"/>
<path d="M10750 13242 c-103 -51 -107 -205 -7 -260 37 -20 349 -21 2769 -12
l1376 5 27 25 c82 77 70 189 -25 238 l-44 22 -2031 0 c-1913 0 -2032 -1 -2065
-18z"/>
<path d="M10775 12603 c-121 -31 -143 -210 -33 -270 32 -17 163 -18 3076 -16
2914 2 3045 3 3074 20 50 29 73 68 73 123 0 52 -19 87 -69 124 l-27 21 -3037
1 c-1670 1 -3046 -1 -3057 -3z"/>
<path d="M8672 10870 c-18 -11 -41 -34 -52 -52 -19 -32 -20 -52 -20 -836 0
-892 -3 -850 66 -892 33 -21 40 -21 839 -20 443 0 815 4 828 9 25 10 59 45 76
78 8 15 11 250 11 826 l0 804 -22 33 c-13 18 -39 41 -58 51 -33 18 -75 19
-835 19 -781 0 -801 -1 -833 -20z m1458 -890 l0 -620 -620 0 -620 0 0 620 0
620 620 0 620 0 0 -620z"/>
<path d="M10742 9990 c-90 -55 -98 -182 -14 -245 27 -20 45 -20 2082 -23 2037
-2 2055 -2 2088 18 72 44 92 139 44 207 -48 68 126 63 -2129 63 -2016 0 -2038
0 -2071 -20z"/>
<path d="M10750 9343 c-103 -52 -107 -208 -7 -260 29 -15 283 -16 3077 -14
2837 2 3047 3 3074 19 47 28 69 66 70 121 1 54 -17 88 -68 125 l-27 21 -3042
3 c-2881 2 -3044 1 -3077 -15z"/>
<path d="M8672 7620 c-18 -11 -41 -34 -52 -52 -19 -32 -20 -52 -20 -838 0
-786 1 -806 20 -838 11 -18 34 -41 52 -52 32 -19 52 -20 838 -20 786 0 806 1
838 20 18 11 41 34 52 52 19 32 20 52 20 839 l0 806 -23 34 c-48 73 0 69 -892
69 -781 0 -801 -1 -833 -20z m1458 -890 l0 -620 -620 0 -620 0 0 620 0 620
620 0 620 0 0 -620z"/>
<path d="M10742 6740 c-51 -32 -74 -76 -69 -138 3 -38 10 -59 28 -78 54 -58
-96 -54 2116 -54 1920 0 2040 1 2073 18 98 49 108 180 18 244 l-33 23 -2050 3
c-2032 2 -2050 2 -2083 -18z"/>
<path d="M10742 6090 c-74 -45 -96 -149 -46 -210 15 -17 39 -37 55 -45 24 -13
418 -15 3064 -15 2781 0 3040 1 3071 16 102 48 107 176 10 248 l-27 21 -3047
3 c-3027 2 -3047 2 -3080 -18z"/>
</g>
</svg>
