<?xml version="1.0" standalone="no"?>
<!DOCTYPE svg PUBLIC "-//W3C//DTD SVG 20010904//EN"
 "http://www.w3.org/TR/2001/REC-SVG-20010904/DTD/svg10.dtd">
<svg version="1.0" xmlns="http://www.w3.org/2000/svg"
 width="153.000000pt" height="153.000000pt" viewBox="0 0 153.000000 153.000000"
 preserveAspectRatio="xMidYMid meet">
<metadata>
Created by potrace 1.14, written by Peter Selinger 2001-2017
</metadata>
<g transform="translate(0.000000,153.000000) scale(0.100000,-0.100000)"
fill="#000000" stroke="none">
<path d="M643 1368 c-69 -52 -374 -296 -538 -430 -90 -73 -90 -74 -93 -124 -3
-44 1 -54 30 -86 72 -79 655 -608 670 -608 4 0 8 80 8 179 l0 179 -47 7 c-107
15 -200 80 -259 181 -25 42 -29 59 -29 124 1 89 28 150 97 217 44 43 149 98
206 109 l32 6 0 149 c0 82 -2 149 -4 149 -3 0 -35 -23 -73 -52z m-57 -261
c-167 -105 -226 -162 -247 -241 -14 -51 -6 -133 17 -183 25 -52 117 -142 187
-182 32 -18 56 -35 54 -38 -9 -8 -105 34 -160 71 -241 160 -215 414 56 546 77
37 138 55 93 27z"/>
<path d="M800 1272 l0 -148 49 -13 c105 -27 228 -122 257 -198 23 -59 16 -192
-14 -249 -44 -86 -141 -149 -274 -178 l-28 -6 0 -181 0 -181 73 62 c236 204
456 398 549 489 104 100 108 105 108 146 0 26 -7 51 -17 63 -41 46 -676 542
-695 542 -4 0 -8 -67 -8 -148z m184 -172 c73 -25 118 -52 179 -109 71 -66 91
-110 91 -201 1 -55 -4 -84 -18 -110 -30 -55 -129 -144 -199 -178 -82 -41 -120
-42 -47 -1 71 39 145 111 178 174 22 41 27 63 26 125 0 132 -45 194 -199 271
-111 56 -115 65 -11 29z"/>
<path d="M730 1000 l0 -70 -80 0 -80 0 0 -30 0 -30 80 0 81 0 -3 -165 -3 -165
30 0 30 0 -3 165 -3 165 86 0 85 0 0 30 0 29 -81 3 -82 3 1 68 0 67 -29 0 -29
0 0 -70z"/>
</g>
</svg>
